<svg xmlns="http://www.w3.org/2000/svg" viewBox="0 0 16 16" style="enable-background:new 0 0 16 16" xml:space="preserve"><path d="M12.9 14.9H3.1c-.9 0-1.6-.7-1.6-1.6V3.5c0-.9.7-1.6 1.6-1.6h9.8c.9 0 1.6.7 1.6 1.6v9.8c0 .8-.7 1.6-1.6 1.6zm.8-11.5c0-.4-.4-.8-.8-.7H3.1c-.4 0-.8.3-.8.7v.9h11.4v-.9zm0 1.7H2.3v8.1c0 .5.4.8.8.8h9.8c.5 0 .8-.4.8-.8V5.1zM11 11.7c-.1.1-.4.1-.5 0-.1-.1-.1-.4 0-.5l1.8-1.5-1.8-1.5c-.1-.1-.1-.4 0-.5.1-.1.4-.1.5 0l2.1 1.7c.1.1.1.4 0 .5L11 11.7zm-3.5 1.1c-.1.1-.2.2-.5.1-.2-.1-.2-.3-.1-.5l1.7-5.8s.3-.2.5-.1.2.3.1.5l-1.7 5.8zm-2-1.1c-.1.1-.4.1-.5 0L2.9 10c-.1-.1-.1-.4 0-.5L5 7.8c.1-.1.4-.1.5 0 .1.1.1.4 0 .5L3.7 9.8l1.8 1.5c.1.1.1.3 0 .4z" style="fill:#d4d4d4"/></svg>