<svg xmlns="http://www.w3.org/2000/svg" viewBox="0 0 16 16" style="enable-background:new 0 0 16 16" xml:space="preserve"><style>.st0{fill:#d4d4d4}</style><path class="st0" d="M8.9 6.4c-.2.2-.3.6 0 .8.2.3.4.6.4.9 0 .3-.2.7-.4.9l-3.5 3.3c-.3.2-.6.4-.9.4-.3 0-.7-.1-.9-.4-.2-.3-.4-.6-.4-.9 0-.3.2-.7.4-.9L5 9c.2-.2.2-.6 0-.8-.2-.2-.5-.2-.8 0L2.8 9.6c-.5.4-.7 1-.8 1.7 0 .7.2 1.3.7 1.7.5.5 1.1.8 1.8.8.6 0 1.2-.2 1.7-.7l3.5-3.3c.5-.4.7-1 .8-1.7 0-.6-.2-1.3-.7-1.7-.3-.2-.7-.2-.9 0z"/><path class="st0" d="M13.3 2.9c-.4-.5-1-.7-1.7-.8-.6 0-1.3.2-1.7.7L6.4 6c-.4.5-.7 1.1-.7 1.7 0 .7.2 1.3.7 1.7.1.1.3.2.4.2.1 0 .3-.1.4-.2.2-.2.2-.6 0-.8-.3-.2-.4-.5-.4-.8 0-.3.2-.7.4-.9l3.5-3.2c.3-.2.6-.4.9-.4.3 0 .7.2.9.4.2.3.4.6.4.9 0 .3-.2.7-.4.9l-1.2 1.2c-.2.2-.2.6 0 .8.2.2.6.2.8 0l1.2-1.2c.5-.4.7-1 .8-1.7-.1-.6-.3-1.2-.8-1.7z"/></svg>