<svg class="icon" viewBox="0 0 1024 1024" xmlns="http://www.w3.org/2000/svg" width="16" height="16"><path d="M170.667 981.333A85.427 85.427 0 0 1 85.333 896 21.333 21.333 0 0 1 128 896a42.667 42.667 0 1 0 42.667-42.667 21.333 21.333 0 0 1 0-42.666A42.667 42.667 0 1 0 128 768a21.333 21.333 0 0 1-42.667 0 85.333 85.333 0 1 1 141.72 64 85.3 85.3 0 0 1-56.386 149.333zM917.333 896H362.667a21.333 21.333 0 0 1 0-42.667h554.666a21.333 21.333 0 0 1 0 42.667zM234.667 640h-128a21.333 21.333 0 0 1-21.334-21.333c0-21.154 8.714-42.967 25.194-63.094 13.113-16 30.846-30.56 49.926-40.966 4-2.2 8.12-4.32 12.08-6.374 28.367-14.7 40.8-22.82 40.8-38.9a42.667 42.667 0 0 0-85.333 0 21.333 21.333 0 0 1-42.667 0 85.333 85.333 0 0 1 170.667 0c0 19.854-7.853 37.06-23.333 51.147-11.874 10.807-26.42 18.347-40.487 25.633-3.933 2.04-7.653 4-11.287 5.947-18.84 10.28-37.846 27.333-47.1 45.273h100.874a21.333 21.333 0 0 1 0 42.667zm682.666-85.333H362.667a21.333 21.333 0 0 1 0-42.667h554.666a21.333 21.333 0 0 1 0 42.667zM192 298.667a21.333 21.333 0 0 1-21.333-21.334V128h-21.334a21.333 21.333 0 0 1 0-42.667H192a21.333 21.333 0 0 1 21.333 21.334v170.666A21.333 21.333 0 0 1 192 298.667zm725.333-85.334H362.667a21.333 21.333 0 0 1 0-42.666h554.666a21.333 21.333 0 0 1 0 42.666z" fill="#d4d4d4"/></svg>