<svg xmlns="http://www.w3.org/2000/svg" viewBox="0 0 16 16" style="enable-background:new 0 0 16 16" xml:space="preserve"><path d="M14.7 3.1H5.3c-.1 0-.3-.1-.3-.3 0-.2.1-.3.3-.3h9.3c.2 0 .3.1.3.3.1.2 0 .3-.2.3zm.3 5c0-.2-.1-.3-.3-.3H5.3c-.1 0-.3.1-.3.3 0 .2.1.3.3.3h9.3c.3 0 .4-.1.4-.3zm0 5.3c0-.2-.1-.3-.3-.3H5.3c-.2 0-.3.1-.3.3 0 .2.1.3.3.3h9.3c.3.1.4-.1.4-.3zM1.8 3.4l.5.5.5-.5L4 2.2c.1-.1.1-.4 0-.6-.1-.1-.3-.1-.5 0L2.3 2.9l-.5-.5c-.1-.1-.3-.1-.5 0-.1.1-.1.3 0 .5l.5.5zm0 5.4.5.5.5-.5L4 7.7c.1-.1.1-.3 0-.5-.1-.1-.3-.1-.5 0L2.3 8.4l-.5-.5c-.1-.1-.3-.1-.5 0-.1.1-.1.3 0 .4l.5.5zm0 5.1.5.5.4-.4L4 12.8c.1-.1.1-.3 0-.5-.1-.1-.3-.1-.5 0l-1.3 1.2-.4-.5c-.1-.1-.3-.1-.5 0-.1.1-.1.3 0 .5l.5.4z" style="fill:#d4d4d4"/></svg>