<svg class="icon" viewBox="0 0 1024 1024" xmlns="http://www.w3.org/2000/svg" width="16" height="16"><path d="M917.333 213.333H320a21.333 21.333 0 0 1 0-42.666h597.333a21.333 21.333 0 0 1 0 42.666zm21.334 320A21.333 21.333 0 0 0 917.333 512H320a21.333 21.333 0 0 0 0 42.667h597.333a21.333 21.333 0 0 0 21.334-21.334zm0 341.334a21.333 21.333 0 0 0-21.334-21.334H320A21.333 21.333 0 0 0 320 896h597.333a21.333 21.333 0 0 0 21.334-21.333zM149.333 128a64 64 0 1 0 64 64 64 64 0 0 0-64-64zm0 341.333a64 64 0 1 0 64 64 64 64 0 0 0-64-64zm0 341.334a64 64 0 1 0 64 64 64 64 0 0 0-64-64z" fill="#d4d4d4"/></svg>