<svg class="icon" viewBox="0 0 1024 1024" xmlns="http://www.w3.org/2000/svg" width="16" height="16"><path d="m907.947 863.573-163.2-163.2h136.106a32 32 0 0 0 0-64h-224a21.333 21.333 0 0 0-21.333 21.334v224a32 32 0 1 0 64 0v-135.04l163.2 163.2a32 32 0 0 0 45.227-45.227zm-540.8-227.2h-224a32 32 0 1 0 0 64h136.106l-163.2 163.2A32 32 0 0 0 161.28 908.8l163.2-162.133v136.106a32 32 0 0 0 64 0V657.707a21.333 21.333 0 0 0-21.333-21.334zM880 326.187H743.893l164.054-164.054a32 32 0 1 0-45.227-45.226L698.667 280.96V144.853a32 32 0 1 0-64 0v224A21.333 21.333 0 0 0 656 390.187h224a32 32 0 1 0 0-64zM357.333 112.853a32 32 0 0 0-32 32V280.96L161.28 116.907a32 32 0 1 0-45.227 45.226l164.054 164.054H144a32 32 0 1 0 0 64h224a21.333 21.333 0 0 0 21.333-21.334v-224a32 32 0 0 0-32-32z" fill="#d4d4d4"/></svg>