<svg xmlns="http://www.w3.org/2000/svg" viewBox="0 0 16 16" style="enable-background:new 0 0 16 16" xml:space="preserve"><path d="M13.3 3v.5H13c-.1 0-.2 0-.3.1-.1 0-.1.1-.2.1-.1.1-.1.1-.1.2v8.5c0 .1.1.3.3.3.1.1.3.1.5.1h.3v.5H9.4V13c.5 0 .8 0 .8-.1.1 0 .1-.2.1-.4V8.7H5.6v3.8c0 .3 0 .4.1.4s.4.1.8.1v.5H2.7V13H3c.1 0 .2 0 .3-.1.1 0 .1-.1.2-.1.1-.1.1-.1.1-.2V4c0-.1-.1-.3-.3-.3-.1-.1-.3-.1-.4-.2h-.3V3h3.9v.5c-.5 0-.8 0-.8.1-.1 0-.1.1-.1.4v3.8h4.8V4c0-.3 0-.4-.1-.4s-.4-.1-.8-.1V3h3.8z" style="fill:#d4d4d4"/></svg>