<svg version="1.1" id="图层_1" xmlns="http://www.w3.org/2000/svg" x="0" y="0" viewBox="0 0 200 200" style="enable-background:new 0 0 200 200" xml:space="preserve"><style>.st0{fill:#d4d4d4}</style><path class="st0" d="M118 133.5v8.4c0 2.3-1.7 4.2-3.6 4.2H85.6c-2 0-3.6-2-3.6-4.2v-8.4c0-2.3 1.7-4.2 3.6-4.2h3.6v-25.1h-3.6c-2 0-3.6-2-3.6-4.2v-8.4c0-2.3 1.7-4.2 3.6-4.2h21.7c2 0 3.6 2 3.6 4.2v37.6h3.6c1.9.1 3.5 1.9 3.5 4.3zm-7.2-75.3v12.5c0 2.3-1.7 4.2-3.6 4.2H92.7c-2 0-3.6-2-3.6-4.2V58.2c0-2.3 1.7-4.2 3.6-4.2h14.5c1.9 0 3.6 1.9 3.6 4.2z"/><path class="st0" d="M134.5 8h-69C30.2 8 8 30 8 65.5v21.4c0 3.9 3.2 7.1 7 7.1h.1c3.8 0 7-3.2 7-7V65.5C22 37.5 37.5 22 65.5 22h69c28.1 0 43.5 15.4 43.5 43.5v69c0 28-15.4 43.4-43.5 43.4h-69c-28 .1-43.5-15.4-43.5-43.3-.2-3.9-3.5-6.9-7.4-6.7-3.6.2-6.5 3.1-6.7 6.7C8 170 30 192 65.4 192h69c35.5 0 57.5-22 57.5-57.4v-69C192 30 170 8 134.5 8z"/></svg>