<svg xmlns="http://www.w3.org/2000/svg" viewBox="0 0 16 16" style="enable-background:new 0 0 16 16" xml:space="preserve"><path d="M4.9 8c.4 0 .9-.4.9-.9 0-.4-.4-.9-.9-.9s-.8.5-.8.9.4.9.8.9zM12 4.4H2.3c-.4 0-.9.4-.9.9v7c0 .4.4.9.9.9H12c.4 0 .9-.4.9-.9v-7c0-.4-.5-.9-.9-.9zm0 8H2.3V9.7c.6.3 1.5.9 2.6.9.9 0 1.8-.4 2.6-.9.9-.5 1.5-.9 2.2-.9.8 0 1.7.5 2.2.9l.1 2.7zm0-3.6c-.6-.3-1.5-.8-2.2-.8-.7 0-1.2.5-2.2.8-.9.4-1.7.9-2.6.9-1.1 0-2-.5-2.7-.9V5.3H12v3.5zM5.4 2.7v.9h8.4V11h.9V2.7H5.4z" style="fill:#d4d4d4"/></svg>