<svg xmlns="http://www.w3.org/2000/svg" viewBox="0 0 16 16" style="enable-background:new 0 0 16 16" xml:space="preserve"><path d="M7.3 3.1H6.1c-1.2 0-2.2.3-2.8 1-.9 1-.8 2.2-.8 2.4v5.7c0 .3.2.6.6.6h3.8c.3 0 .6-.2.6-.6V8c0-.3-.2-.6-.6-.6H3.5v-.9s-.1-1 .6-1.7c.4-.5 1.1-.7 2-.7h1.2s.1 0 .1-.1l-.1-.9c.1 0 .1 0 0 0zm-.9 5.3v3.4H3.5V8.4h2.9zm5.9-4.3h1.2s.1 0 .1-.1v-.8s0-.1-.1-.1h-1.2c-1.2 0-2.2.4-2.8 1-.9 1-.8 2.2-.8 2.4v5.7c0 .3.2.6.6.6H13c.3 0 .6-.2.6-.6V8c0-.3-.2-.6-.6-.6H9.7v-.9s-.1-1 .6-1.7c.4-.5 1.1-.7 2-.7zm.3 4.3v3.4H9.7V8.4h2.9z" style="fill:#d4d4d4"/></svg>