<svg xmlns="http://www.w3.org/2000/svg" viewBox="0 0 16 16" style="enable-background:new 0 0 16 16" xml:space="preserve"><path d="M14.6 7.4H8.9c-.2 0-.3-.1-.5-.1s-.3-.1-.5-.1c-.7-.1-1.2-.3-1.6-.5-.5-.3-.8-.7-.8-1.2 0-.6.2-1 .7-1.3.4-.3 1-.5 1.8-.5s1.5.2 1.9.6c.2.2.4.5.5.8 0 .1 0 .2.1.3 0 .1.1.1.1.1h1.1c.1 0 .2-.1.2-.2v-.2c-.1-.7-.4-1.2-.9-1.7-.8-.6-1.8-.9-3-.9-1.1 0-2 .2-2.7.7-.4.3-.7.6-.9 1-.2.5-.3.9-.3 1.4 0 .4.1.8.3 1.2.1.2.2.4.4.6H1.4c-.1 0-.1.1-.1.1v.9c0 .1.1.1.1.1H8c.5.1.7.2 1 .2.3.2.6.3.8.4.5.3.8.7.8 1.3 0 .5-.2 1-.7 1.3-.5.4-1.1.5-2 .5-.7 0-1.2-.1-1.7-.4-.4-.2-.7-.6-.9-1v-.1c0-.1-.1-.1-.1-.1H4.1c-.1 0-.2.1-.2.2v.1c.1.8.5 1.4 1.1 1.8.7.5 1.7.8 2.9.8 1.3 0 2.3-.3 3.1-.9.4-.3.7-.6.9-1 .2-.4.3-.9.3-1.4 0-.5-.1-.9-.3-1.2-.1-.2-.2-.3-.3-.5h3.1c.1 0 .1-.1.1-.1v-.9s-.1-.1-.2-.1z" style="fill:#d4d4d4"/></svg>