<svg xmlns="http://www.w3.org/2000/svg" viewBox="0 0 16 16" style="enable-background:new 0 0 16 16" xml:space="preserve"><path d="M14.3 6.2V3.5c0-1-.8-1.8-1.8-1.8h-9c-1 0-1.8.8-1.8 1.8v9c0 1 .8 1.8 1.8 1.8h9c1 0 1.8-.8 1.8-1.8V6.2zM2.9 2.9c.1-.2.4-.3.6-.3h9c.5 0 .9.4.9.9v1.8H2.6V3.5c0-.2.1-.5.3-.6zm3.7 6.4V6.2h2.7v3.1H6.6zm2.7.9v3.1H6.6v-3.1h2.7zm-3.6-.9H2.6V6.2h3.1v3.1zm-2.8 3.8c-.2-.2-.3-.4-.3-.6v-2.2h3.1v3.1H3.5c-.2 0-.5-.1-.6-.3zm10.5-.6c0 .5-.4.9-.9.9h-2.2v-3.1h3.1v2.2zm0-3.2h-3.1V6.2h3.1v3.1z" style="fill:#d4d4d4"/></svg>